<?xml version="1.0" encoding="UTF-8"?>
<svg version="1.1" xmlns="http://www.w3.org/2000/svg" width="382" height="55">
<path d="M0 0 C126.06 0 252.12 0 382 0 C382 18.15 382 36.3 382 55 C255.94 55 129.88 55 0 55 C0 36.85 0 18.7 0 0 Z " fill="#FCFDFD" transform="translate(0,0)"/>
<path d="M0 0 C1.53333984 0.00966797 1.53333984 0.00966797 3.09765625 0.01953125 C5.9375 0.1875 5.9375 0.1875 9.9375 1.1875 C9.9375 4.1575 9.9375 7.1275 9.9375 10.1875 C8.63425781 10.00960938 8.63425781 10.00960938 7.3046875 9.828125 C-0.0077396 8.69123719 -0.0077396 8.69123719 -6.75 10.9375 C-9.31026692 13.42857051 -10.9468624 15.08894281 -11.328125 18.7109375 C-11.32296875 19.65195312 -11.3178125 20.59296875 -11.3125 21.5625 C-11.31765625 22.49835937 -11.3228125 23.43421875 -11.328125 24.3984375 C-10.93354949 28.54148039 -10.1141538 31.31612971 -6.875 34 C-1.37048151 36.32413003 4.18759813 35.12625949 9.9375 34.1875 C9.9375 36.8275 9.9375 39.4675 9.9375 42.1875 C3.58030894 45.13610439 -3.80895821 45.42477238 -10.546875 43.46484375 C-15.57489986 41.13040364 -18.65116996 38.02038711 -21.140625 33.0234375 C-22.31333688 29.41585772 -22.43052931 26.00371561 -22.4375 22.25 C-22.46199219 21.55970703 -22.48648438 20.86941406 -22.51171875 20.15820312 C-22.54644606 14.05198459 -20.43623157 10.67274916 -16.31640625 6.359375 C-15.75824219 5.89015625 -15.20007813 5.4209375 -14.625 4.9375 C-14.06941406 4.45796875 -13.51382813 3.9784375 -12.94140625 3.484375 C-8.71915615 0.57005685 -5.0784868 -0.07062371 0 0 Z " fill="#07B6D9" transform="translate(203.0625,0.8125)"/>
<path d="M0 0 C0 3.3 0 6.6 0 10 C-0.969375 9.649375 -1.93875 9.29875 -2.9375 8.9375 C-7.41002285 7.68555648 -11.53093868 7.69443153 -16 9 C-18.72399491 11.09974607 -20.40536756 12.67351225 -21.8125 15.8125 C-22.5156994 22.86724911 -22.5156994 22.86724911 -20.25 29.375 C-17.62102193 32.52028191 -17.62102193 32.52028191 -14 34 C-8.74105883 34.33928653 -4.9544667 33.98178668 0 32 C0 34.97 0 37.94 0 41 C-6.3568034 43.94842458 -13.69925288 44.20722726 -20.44921875 42.3125 C-24.93656753 40.26114056 -28.65585586 37.43921609 -31 33 C-31.75021684 29.17130715 -31.74432408 25.45371419 -31.6875 21.5625 C-31.71521484 20.55123047 -31.74292969 19.53996094 -31.77148438 18.49804688 C-31.75148731 12.36694549 -30.9907623 8.78344866 -26.63623047 4.36279297 C-18.80407077 -2.16050089 -9.71103484 -2.42775871 0 0 Z " fill="#FFBB0D" transform="translate(31,2)"/>
<path d="M0 0 C2.70940754 2.24493767 4.43938773 3.70474486 6.1875 6.8125 C6.51941004 10.54780501 6.36888799 14.04869929 6.1875 17.8125 C-0.0825 17.8125 -6.3525 17.8125 -12.8125 17.8125 C-11.8225 19.4625 -10.8325 21.1125 -9.8125 22.8125 C-7.44842916 23.45340535 -7.44842916 23.45340535 -4.875 23.1875 C-3.59302734 23.13722656 -3.59302734 23.13722656 -2.28515625 23.0859375 C-0.04091322 22.83775897 2.01820148 22.42654738 4.1875 21.8125 C4.1875 24.1225 4.1875 26.4325 4.1875 28.8125 C-1.00747272 31.98016629 -6.94304089 31.4038261 -12.8125 30.8125 C-18.23056118 28.29029911 -20.22564232 24.98621535 -22.8125 19.8125 C-23.35943078 14.82736047 -23.3967286 10.93922659 -21.0625 6.4375 C-15.17286458 -0.43374132 -8.97902169 -3.79114249 0 0 Z " fill="#FFBD12" transform="translate(113.8125,14.1875)"/>
<path d="M0 0 C3.39518445 2.36873334 4.90830689 4.11132227 6.6875 7.875 C7.00362439 11.28608415 6.87341372 14.43559625 6.6875 17.875 C0.4175 17.875 -5.8525 17.875 -12.3125 17.875 C-11.3225 19.525 -10.3325 21.175 -9.3125 22.875 C-6.91425734 23.51563487 -6.91425734 23.51563487 -4.3125 23.25 C-3.44625 23.21648438 -2.58 23.18296875 -1.6875 23.1484375 C0.83308646 22.9407189 0.83308646 22.9407189 3.6875 21.875 C3.6875 24.185 3.6875 26.495 3.6875 28.875 C-2.11719564 31.49444749 -8.32457877 32.14192082 -14.4765625 30.1875 C-17.37355579 28.70818428 -19.26956467 26.93040042 -21.25 24.375 C-23.19806115 17.9578574 -23.54058419 11.52010442 -20.6875 5.375 C-14.34984926 -1.2962113 -8.68603375 -2.94997373 0 0 Z " fill="#FFBC12" transform="translate(146.3125,14.125)"/>
<path d="M0 0 C2.4375 1.6875 2.4375 1.6875 4.4375 4.6875 C4.66455078 7.32299805 4.66455078 7.32299805 4.6328125 10.44921875 C4.62636719 11.56748047 4.61992188 12.68574219 4.61328125 13.83789062 C4.59652344 15.00513672 4.57976563 16.17238281 4.5625 17.375 C4.55347656 18.55384766 4.54445313 19.73269531 4.53515625 20.94726562 C4.51156423 23.86088026 4.4786454 26.77408892 4.4375 29.6875 C0.4375 29.6875 -3.5625 29.6875 -7.5625 29.6875 C-8.2225 30.0175 -8.8825 30.3475 -9.5625 30.6875 C-12.57385805 31.03306568 -14.65611171 31.26544337 -17.5625 30.6875 C-21.13492969 27.63604964 -22.39106498 25.77325513 -23.125 21.125 C-22.46471791 17.08994275 -21.5170023 15.48229947 -18.5625 12.6875 C-14.4637062 10.41039233 -10.16014425 10.15505704 -5.5625 9.6875 C-5.5625 8.6975 -5.5625 7.7075 -5.5625 6.6875 C-7.14573688 6.660307 -8.72911062 6.64101694 -10.3125 6.625 C-11.19421875 6.61339844 -12.0759375 6.60179687 -12.984375 6.58984375 C-15.3443838 6.67923802 -17.30748524 7.01837179 -19.5625 7.6875 C-19.5625 5.3775 -19.5625 3.0675 -19.5625 0.6875 C-13.16228611 -2.21747954 -6.59842401 -2.43099832 0 0 Z " fill="#FFBC12" transform="translate(57.5625,14.3125)"/>
<path d="M0 0 C2.916095 2.06260378 3.98055148 3.63068768 5.5625 6.8125 C5.90307617 9.49145508 5.90307617 9.49145508 5.85546875 12.33203125 C5.84580078 13.35361328 5.83613281 14.37519531 5.82617188 15.42773438 C5.80103516 16.48283203 5.77589844 17.53792969 5.75 18.625 C5.72969727 20.23665039 5.72969727 20.23665039 5.70898438 21.88085938 C5.67372577 24.52525455 5.62444366 27.16861748 5.5625 29.8125 C2.5925 29.8125 -0.3775 29.8125 -3.4375 29.8125 C-3.7675 29.1525 -4.0975 28.4925 -4.4375 27.8125 C-5.118125 28.3075 -5.79875 28.8025 -6.5 29.3125 C-10.18538284 31.19439762 -12.34596373 31.39700518 -16.4375 30.8125 C-19.375 28.875 -19.375 28.875 -21.4375 25.8125 C-22.07195246 22.68476067 -22.07011334 19.94042152 -21.4375 16.8125 C-19.06805584 13.38996955 -16.4275052 11.87650139 -12.4375 10.8125 C-9.42903014 10.66055708 -6.44663478 10.69449471 -3.4375 10.8125 C-4.4275 9.1625 -5.4175 7.5125 -6.4375 5.8125 C-7.85452513 5.95480808 -9.2711096 6.10150746 -10.6875 6.25 C-11.47640625 6.33121094 -12.2653125 6.41242187 -13.078125 6.49609375 C-15.26114639 6.78884993 -17.3148182 7.23314419 -19.4375 7.8125 C-19.4375 5.5025 -19.4375 3.1925 -19.4375 0.8125 C-13.02336345 -1.88818907 -6.57000533 -2.26963821 0 0 Z " fill="#0AB6D9" transform="translate(339.4375,14.1875)"/>
<path d="M0 0 C2.4375 1.6875 2.4375 1.6875 4.4375 4.6875 C4.66455078 7.32299805 4.66455078 7.32299805 4.6328125 10.44921875 C4.62636719 11.56748047 4.61992187 12.68574219 4.61328125 13.83789062 C4.59652344 15.00513672 4.57976562 16.17238281 4.5625 17.375 C4.55347656 18.55384766 4.54445312 19.73269531 4.53515625 20.94726562 C4.51156423 23.86088026 4.4786454 26.77408892 4.4375 29.6875 C1.7975 29.6875 -0.8425 29.6875 -3.5625 29.6875 C-3.8925 28.6975 -4.2225 27.7075 -4.5625 26.6875 C-5.01625 27.161875 -5.47 27.63625 -5.9375 28.125 C-8.3508246 30.44550442 -9.46041238 30.67786909 -12.875 31 C-17.13786111 30.63874058 -18.58242054 29.66757946 -21.5625 26.6875 C-23.11274464 23.58701072 -22.85242015 21.10855782 -22.5625 17.6875 C-20.4605145 14.24414967 -19.16566296 12.9009381 -15.328125 11.54296875 C-14.16796875 11.32253906 -13.0078125 11.10210937 -11.8125 10.875 C-10.64203125 10.64167969 -9.4715625 10.40835937 -8.265625 10.16796875 C-7.37359375 10.00941406 -6.4815625 9.85085937 -5.5625 9.6875 C-5.5625 8.6975 -5.5625 7.7075 -5.5625 6.6875 C-7.14573688 6.660307 -8.72911062 6.64101694 -10.3125 6.625 C-11.19421875 6.61339844 -12.0759375 6.60179687 -12.984375 6.58984375 C-15.3443838 6.67923802 -17.30748524 7.01837179 -19.5625 7.6875 C-19.5625 5.3775 -19.5625 3.0675 -19.5625 0.6875 C-13.16228611 -2.21747954 -6.59842401 -2.43099832 0 0 Z " fill="#09B6D9" transform="translate(239.5625,14.3125)"/>
<path d="M0 0 C3.81799985 1.69688882 5.49338174 3.13976337 7 7 C7.22705078 9.65722656 7.22705078 9.65722656 7.1953125 12.640625 C7.18886719 13.71054687 7.18242187 14.78046875 7.17578125 15.8828125 C7.15902344 16.99398438 7.14226562 18.10515625 7.125 19.25 C7.11597656 20.37664063 7.10695313 21.50328125 7.09765625 22.6640625 C7.07410658 25.44292365 7.0412168 28.2213539 7 31 C4.03 31 1.06 31 -2 31 C-2.01981934 30.37432129 -2.03963867 29.74864258 -2.06005859 29.10400391 C-2.15514226 26.27723481 -2.26488746 23.45122185 -2.375 20.625 C-2.4059375 19.64015625 -2.436875 18.6553125 -2.46875 17.640625 C-2.50742187 16.69960938 -2.54609375 15.75859375 -2.5859375 14.7890625 C-2.63306885 13.48509521 -2.63306885 13.48509521 -2.68115234 12.15478516 C-2.81229433 9.79038206 -2.81229433 9.79038206 -5 8 C-8.06991681 8.16442277 -8.06991681 8.16442277 -11 9 C-12.17469444 11.34938888 -12.20034889 12.95073205 -12.31640625 15.5703125 C-12.35830078 16.46621094 -12.40019531 17.36210937 -12.44335938 18.28515625 C-12.48267578 19.22230469 -12.52199219 20.15945312 -12.5625 21.125 C-12.60568359 22.06988281 -12.64886719 23.01476562 -12.69335938 23.98828125 C-12.7995894 26.32534172 -12.90031271 28.6626513 -13 31 C-15.97 31 -18.94 31 -22 31 C-22 21.1 -22 11.2 -22 1 C-19.03 1 -16.06 1 -13 1 C-12.67 1.99 -12.34 2.98 -12 4 C-11.319375 3.34 -10.63875 2.68 -9.9375 2 C-6.26383061 -0.50122172 -4.36916255 -0.54614532 0 0 Z " fill="#04B5D8" transform="translate(274,13)"/>
<path d="M0 0 C3.3 0 6.6 0 10 0 C10.34933594 1.21558594 10.69867188 2.43117188 11.05859375 3.68359375 C11.5180586 5.26827863 11.9777033 6.85291137 12.4375 8.4375 C12.66759766 9.23994141 12.89769531 10.04238281 13.13476562 10.86914062 C13.98705862 14.74053247 13.98705862 14.74053247 16 18 C16.34933594 16.78441406 16.69867188 15.56882812 17.05859375 14.31640625 C17.5180586 12.73172137 17.9777033 11.14708863 18.4375 9.5625 C18.66759766 8.76005859 18.89769531 7.95761719 19.13476562 7.13085938 C20.88671875 1.11328125 20.88671875 1.11328125 22 0 C23.68608966 -0.07205511 25.37500659 -0.08386068 27.0625 -0.0625 C27.98160156 -0.05347656 28.90070313 -0.04445313 29.84765625 -0.03515625 C30.55792969 -0.02355469 31.26820313 -0.01195312 32 0 C30.54313076 4.06302654 29.08424874 8.12532752 27.625 12.1875 C27.2125 13.33798828 26.8 14.48847656 26.375 15.67382812 C25.77558594 17.34155273 25.77558594 17.34155273 25.1640625 19.04296875 C24.79748535 20.06414795 24.4309082 21.08532715 24.05322266 22.13745117 C23.08240167 24.77604091 22.04417261 27.38956848 21 30 C17.37 30 13.74 30 10 30 C8.5695796 26.21204894 7.1456021 22.42174552 5.72753906 18.62915039 C5.24427735 17.33942542 4.75926331 16.05035562 4.27246094 14.76196289 C3.57286085 12.90945042 2.88008767 11.05436431 2.1875 9.19921875 C1.76855469 8.08377686 1.34960938 6.96833496 0.91796875 5.8190918 C0 3 0 3 0 0 Z " fill="#0AB7D9" transform="translate(285,14)"/>
<path d="M0 0 C0.86625 -0.00257812 1.7325 -0.00515625 2.625 -0.0078125 C5 0.125 5 0.125 8 1.125 C8 3.435 8 5.745 8 8.125 C4.7 7.795 1.4 7.465 -2 7.125 C-2 8.445 -2 9.765 -2 11.125 C-1.30132812 11.45113281 -0.60265625 11.77726562 0.1171875 12.11328125 C1.02726562 12.55027344 1.93734375 12.98726562 2.875 13.4375 C3.77992188 13.86675781 4.68484375 14.29601563 5.6171875 14.73828125 C8 16.125 8 16.125 10 19.125 C10.49557946 22.92444252 10.32625657 24.61231111 8.25 27.875 C5.26791341 30.85708659 3.33236134 32.01948414 -0.91015625 32.35546875 C-1.95042969 32.34128906 -2.99070312 32.32710937 -4.0625 32.3125 C-5.10535156 32.30605469 -6.14820313 32.29960938 -7.22265625 32.29296875 C-10 32.125 -10 32.125 -13 31.125 C-13 28.485 -13 25.845 -13 23.125 C-11.7315625 23.6509375 -11.7315625 23.6509375 -10.4375 24.1875 C-6.54982467 25.24777509 -3.91574361 24.90814872 0 24.125 C-0.67864579 20.98433888 -0.67864579 20.98433888 -3.21484375 19.84375 C-4.11332031 19.4415625 -5.01179688 19.039375 -5.9375 18.625 C-10.78370979 16.44943532 -10.78370979 16.44943532 -13 13.125 C-13.4375 9.75 -13.4375 9.75 -13 6.125 C-9.09270674 1.26728405 -6.09298276 -0.01813388 0 0 Z " fill="#08B6D9" transform="translate(363,12.875)"/>
<path d="M0 0 C1.4540625 0.0309375 1.4540625 0.0309375 2.9375 0.0625 C2.9375 3.0325 2.9375 6.0025 2.9375 9.0625 C1.82375 9.02125 0.71 8.98 -0.4375 8.9375 C-4.10616025 8.65128141 -4.10616025 8.65128141 -6.0625 11.0625 C-6.43202049 13.19110662 -6.43202049 13.19110662 -6.4765625 15.6328125 C-6.53457031 16.97666016 -6.53457031 16.97666016 -6.59375 18.34765625 C-6.64015625 19.75337891 -6.64015625 19.75337891 -6.6875 21.1875 C-6.74550781 22.60482422 -6.74550781 22.60482422 -6.8046875 24.05078125 C-6.8991082 26.3876935 -6.98189898 28.7250703 -7.0625 31.0625 C-10.3625 31.0625 -13.6625 31.0625 -17.0625 31.0625 C-17.0625 21.1625 -17.0625 11.2625 -17.0625 1.0625 C-12.72916667 1.0625 -8.39583333 1.0625 -4.0625 1.0625 C-3.0625 0.0625 -3.0625 0.0625 0 0 Z " fill="#FFBD12" transform="translate(175.0625,12.9375)"/>
<path d="M0 0 C0 2.64 0 5.28 0 8 C-1.11375 8.28875 -2.2275 8.5775 -3.375 8.875 C-7.00291092 9.69241329 -7.00291092 9.69241329 -9 12 C-9.36894582 14.03060659 -9.36894582 14.03060659 -9.4140625 16.3515625 C-9.47207031 17.62773438 -9.47207031 17.62773438 -9.53125 18.9296875 C-9.57765625 20.26386719 -9.57765625 20.26386719 -9.625 21.625 C-9.68300781 22.97078125 -9.68300781 22.97078125 -9.7421875 24.34375 C-9.83658776 26.56215605 -9.91938805 28.78105013 -10 31 C-12.97 31 -15.94 31 -19 31 C-19 21.1 -19 11.2 -19 1 C-16.03 1 -13.06 1 -10 1 C-9.67 1.66 -9.34 2.32 -9 3 C-8.443125 2.505 -7.88625 2.01 -7.3125 1.5 C-4.61837017 -0.24754367 -3.14624993 -0.26218749 0 0 Z " fill="#FFBA0A" transform="translate(89,13)"/>
<path d="M0 0 C0.22223194 2.74086056 0.34781139 4.43963721 -1.125 6.8125 C-3.77535957 8.49106106 -5.93246424 8.20450238 -9 8 C-9.33 6.35 -9.66 4.7 -10 3 C-6.68152292 -0.06320961 -4.44849969 -0.3033068 0 0 Z " fill="#ECF9FC" transform="translate(336,30)"/>
<path d="M0 0 C-0.75 5.75 -0.75 5.75 -3 8 C-6.0625 8.1875 -6.0625 8.1875 -9 8 C-10 7 -10 7 -10.0625 4.4375 C-10.041875 3.633125 -10.02125 2.82875 -10 2 C-6.49223216 0.39644899 -3.85645121 -0.22036864 0 0 Z " fill="#ECF9FC" transform="translate(236,30)"/>
<path d="M0 0 C0.125 2.875 0.125 2.875 0 6 C-2 8 -2 8 -5.0625 8.1875 C-8 8 -8 8 -9 7 C-9.04063832 5.33382885 -9.042721 3.66611905 -9 2 C-5.86501708 0.14223235 -3.62528568 -0.20140476 0 0 Z " fill="#FFFAF0" transform="translate(53,30)"/>
<path d="M0 0 C3.29714793 0.32971479 4.6226839 0.6226839 7 3 C7 4.32 7 5.64 7 7 C3.37 7 -0.26 7 -4 7 C-2 2 -2 2 0 0 Z " fill="#FFF9EC" transform="translate(137,19)"/>
<path d="M0 0 C2.375 0.6875 2.375 0.6875 3.375 1.6875 C3.375 3.3375 3.375 4.9875 3.375 6.6875 C0.075 6.6875 -3.225 6.6875 -6.625 6.6875 C-6.3125 4.3125 -6.3125 4.3125 -5.625 1.6875 C-2.625 -0.3125 -2.625 -0.3125 0 0 Z " fill="#FFFAF0" transform="translate(107.625,19.3125)"/>
</svg>
